{
  "accessors": [
    {
      "bufferView": 1,
      "componentType": 5126,
      "count": 10004,
      "max": [
        1.1336100101470947,
        0.30736199021339417,
        2.6076149940490723
      ],
      "min": [
        -1.1419130563735962,
        -0.09430799633264542,
        -0.002767999889329076
      ],
      "type": "VEC3"
    },
    {
      "bufferView": 1,
      "byteOffset": 120048,
      "componentType": 5126,
      "count": 10004,
      "max": [
        1.0,
        0.9999983310699463,
        0.9997627139091492
      ],
      "min": [
        -0.9999847412109375,
        -1.0,
        -0.9999926090240479
      ],
      "type": "VEC3"
    },
    {
      "bufferView": 0,
      "componentType": 5125,
      "count": 59622,
      "type": "SCALAR"
    }
  ],
  "asset": {
    "extras": {
      "author": "AaronJOlson (https://sketchfab.com/aaolson817)",
      "license": "CC-BY-4.0 (http://creativecommons.org/licenses/by/4.0/)",
      "source": "https://sketchfab.com/3d-models/female-basemesh-for-mixamo-aece14338c5d46d9a71d1fe79db997c2",
      "title": "Female basemesh for Mixamo"
    },
    "generator": "Sketchfab-12.68.0",
    "version": "2.0"
  },
  "bufferViews": [
    {
      "buffer": 0,
      "byteLength": 238488,
      "name": "floatBufferViews",
      "target": 34963
    },
    {
      "buffer": 0,
      "byteLength": 240096,
      "byteOffset": 238488,
      "byteStride": 12,
      "name": "floatBufferViews",
      "target": 34962
    }
  ],
  "buffers": [
    {
      "byteLength": 478584,
      "uri": "scene.bin"
    }
  ],
  "materials": [
    {
      "doubleSided": true,
      "name": "None",
      "pbrMetallicRoughness": {
        "metallicFactor": 0.0,
        "roughnessFactor": 0.6
      }
    }
  ],
  "meshes": [
    {
      "name": "Object_0",
      "primitives": [
        {
          "attributes": {
            "NORMAL": 1,
            "POSITION": 0
          },
          "indices": 2,
          "material": 0,
          "mode": 4
        }
      ]
    }
  ],
  "nodes": [
    {
      "children": [
        1
      ],
      "matrix": [
        1.0,
        0.0,
        0.0,
        0.0,
        0.0,
        2.220446049250313e-16,
        -1.0,
        0.0,
        0.0,
        1.0,
        2.220446049250313e-16,
        0.0,
        0.0,
        0.0,
        0.0,
        1.0
      ],
      "name": "Sketchfab_model"
    },
    {
      "children": [
        2
      ],
      "name": "mixamo-test-export-9.obj.cleaner.materialmerger.gles"
    },
    {
      "mesh": 0,
      "name": "Object_2"
    }
  ],
  "scene": 0,
  "scenes": [
    {
      "name": "Sketchfab_Scene",
      "nodes": [
        0
      ]
    }
  ]
}
